<?xml version="1.0" encoding="UTF-8" standalone="no"?>
<!DOCTYPE svg PUBLIC "-//W3C//DTD SVG 1.1//EN" "http://www.w3.org/Graphics/SVG/1.1/DTD/svg11.dtd">
<svg width="100%" height="100%" viewBox="0 0 598 104" version="1.1" xmlns="http://www.w3.org/2000/svg" xmlns:xlink="http://www.w3.org/1999/xlink" xml:space="preserve" xmlns:serif="http://www.serif.com/" style="fill-rule:evenodd;clip-rule:evenodd;stroke-linejoin:round;stroke-miterlimit:2;">
    <g transform="matrix(1,0,0,1,-349.102,-400)">
        <g transform="matrix(1,0,0,1,106.813,280.024)">
            <g transform="matrix(0.99794,0,0,0.990985,123.141,-189.121)">
                <g transform="matrix(73.8053,0,0,73.8053,250.595,382.315)">
                    <path d="M0.233,-0.13L0.457,-0.13L0.457,0L0.062,0L0.062,-0.702L0.233,-0.702L0.233,-0.13Z" style="fill:#ffffff;fill-rule:nonzero;" />
                </g>
                <g transform="matrix(73.8053,0,0,73.8053,283.586,382.315)">
                    <path d="M0.588,-0.289C0.588,-0.274 0.587,-0.257 0.585,-0.24L0.198,-0.24C0.201,-0.205 0.212,-0.178 0.231,-0.159C0.25,-0.14 0.275,-0.131 0.304,-0.131C0.347,-0.131 0.376,-0.149 0.393,-0.185L0.575,-0.185C0.566,-0.148 0.549,-0.115 0.525,-0.086C0.5,-0.057 0.47,-0.034 0.433,-0.017C0.396,0 0.355,0.008 0.31,0.008C0.255,0.008 0.207,-0.004 0.164,-0.027C0.121,-0.05 0.088,-0.084 0.064,-0.127C0.04,-0.17 0.028,-0.221 0.028,-0.279C0.028,-0.337 0.04,-0.388 0.064,-0.431C0.087,-0.474 0.12,-0.508 0.163,-0.531C0.206,-0.554 0.255,-0.566 0.31,-0.566C0.364,-0.566 0.412,-0.555 0.454,-0.532C0.496,-0.509 0.529,-0.477 0.553,-0.435C0.576,-0.393 0.588,-0.344 0.588,-0.289ZM0.413,-0.327C0.413,-0.359 0.403,-0.384 0.383,-0.402C0.363,-0.42 0.338,-0.429 0.308,-0.429C0.279,-0.429 0.254,-0.42 0.235,-0.403C0.215,-0.385 0.203,-0.36 0.198,-0.327L0.413,-0.327Z" style="fill:#ffffff;fill-rule:nonzero;" />
                </g>
                <g transform="matrix(73.8053,0,0,73.8053,326.836,382.315)">
                    <path d="M0.288,0.008C0.24,0.008 0.197,0 0.159,-0.017C0.121,-0.034 0.091,-0.057 0.069,-0.086C0.047,-0.115 0.035,-0.147 0.032,-0.183L0.201,-0.183C0.203,-0.162 0.212,-0.146 0.228,-0.134C0.243,-0.121 0.263,-0.115 0.287,-0.115C0.308,-0.115 0.325,-0.119 0.337,-0.128C0.348,-0.137 0.354,-0.148 0.354,-0.163C0.354,-0.179 0.346,-0.191 0.329,-0.199C0.312,-0.207 0.285,-0.215 0.247,-0.224C0.207,-0.233 0.174,-0.243 0.148,-0.253C0.121,-0.263 0.098,-0.279 0.08,-0.302C0.061,-0.324 0.051,-0.354 0.051,-0.391C0.051,-0.424 0.06,-0.453 0.078,-0.48C0.095,-0.506 0.121,-0.527 0.155,-0.543C0.189,-0.558 0.23,-0.566 0.277,-0.566C0.347,-0.566 0.402,-0.549 0.443,-0.514C0.483,-0.479 0.506,-0.433 0.512,-0.376L0.354,-0.376C0.351,-0.397 0.343,-0.413 0.329,-0.425C0.314,-0.436 0.295,-0.442 0.272,-0.442C0.252,-0.442 0.237,-0.438 0.226,-0.43C0.215,-0.422 0.21,-0.411 0.21,-0.396C0.21,-0.38 0.219,-0.368 0.236,-0.36C0.253,-0.352 0.279,-0.344 0.315,-0.336C0.356,-0.326 0.389,-0.316 0.416,-0.306C0.443,-0.295 0.466,-0.278 0.485,-0.256C0.504,-0.233 0.514,-0.202 0.514,-0.163C0.514,-0.13 0.505,-0.101 0.487,-0.075C0.469,-0.049 0.443,-0.029 0.409,-0.014C0.374,0.001 0.334,0.008 0.288,0.008Z" style="fill:#ffffff;fill-rule:nonzero;" />
                </g>
                <g transform="matrix(73.8053,0,0,73.8053,365.806,382.315)">
                    <path d="M0.288,0.008C0.24,0.008 0.197,0 0.159,-0.017C0.121,-0.034 0.091,-0.057 0.069,-0.086C0.047,-0.115 0.035,-0.147 0.032,-0.183L0.201,-0.183C0.203,-0.162 0.212,-0.146 0.228,-0.134C0.243,-0.121 0.263,-0.115 0.287,-0.115C0.308,-0.115 0.325,-0.119 0.337,-0.128C0.348,-0.137 0.354,-0.148 0.354,-0.163C0.354,-0.179 0.346,-0.191 0.329,-0.199C0.312,-0.207 0.285,-0.215 0.247,-0.224C0.207,-0.233 0.174,-0.243 0.148,-0.253C0.121,-0.263 0.098,-0.279 0.08,-0.302C0.061,-0.324 0.051,-0.354 0.051,-0.391C0.051,-0.424 0.06,-0.453 0.078,-0.48C0.095,-0.506 0.121,-0.527 0.155,-0.543C0.189,-0.558 0.23,-0.566 0.277,-0.566C0.347,-0.566 0.402,-0.549 0.443,-0.514C0.483,-0.479 0.506,-0.433 0.512,-0.376L0.354,-0.376C0.351,-0.397 0.343,-0.413 0.329,-0.425C0.314,-0.436 0.295,-0.442 0.272,-0.442C0.252,-0.442 0.237,-0.438 0.226,-0.43C0.215,-0.422 0.21,-0.411 0.21,-0.396C0.21,-0.38 0.219,-0.368 0.236,-0.36C0.253,-0.352 0.279,-0.344 0.315,-0.336C0.356,-0.326 0.389,-0.316 0.416,-0.306C0.443,-0.295 0.466,-0.278 0.485,-0.256C0.504,-0.233 0.514,-0.202 0.514,-0.163C0.514,-0.13 0.505,-0.101 0.487,-0.075C0.469,-0.049 0.443,-0.029 0.409,-0.014C0.374,0.001 0.334,0.008 0.288,0.008Z" style="fill:#ffffff;fill-rule:nonzero;" />
                </g>
                <g transform="matrix(73.8053,0,0,73.8053,404.775,382.315)">
                    <path d="M0.316,0.008C0.261,0.008 0.212,-0.004 0.169,-0.027C0.125,-0.05 0.091,-0.084 0.066,-0.127C0.041,-0.17 0.028,-0.221 0.028,-0.279C0.028,-0.336 0.041,-0.387 0.066,-0.431C0.091,-0.474 0.126,-0.508 0.17,-0.531C0.214,-0.554 0.263,-0.566 0.318,-0.566C0.373,-0.566 0.422,-0.554 0.466,-0.531C0.51,-0.508 0.545,-0.474 0.57,-0.431C0.595,-0.387 0.608,-0.336 0.608,-0.279C0.608,-0.222 0.595,-0.171 0.57,-0.128C0.544,-0.084 0.509,-0.05 0.465,-0.027C0.42,-0.004 0.371,0.008 0.316,0.008ZM0.316,-0.139C0.349,-0.139 0.377,-0.151 0.4,-0.176C0.423,-0.2 0.434,-0.234 0.434,-0.279C0.434,-0.324 0.423,-0.358 0.401,-0.383C0.378,-0.407 0.351,-0.419 0.318,-0.419C0.285,-0.419 0.257,-0.407 0.235,-0.383C0.213,-0.359 0.202,-0.324 0.202,-0.279C0.202,-0.234 0.213,-0.2 0.235,-0.176C0.256,-0.151 0.283,-0.139 0.316,-0.139Z" style="fill:#ffffff;fill-rule:nonzero;" />
                </g>
                <g transform="matrix(73.8053,0,0,73.8053,449.574,382.315)">
                    <path d="M0.402,-0.564C0.467,-0.564 0.52,-0.543 0.559,-0.501C0.598,-0.458 0.617,-0.4 0.617,-0.326L0.617,0L0.447,0L0.447,-0.303C0.447,-0.34 0.437,-0.369 0.418,-0.39C0.399,-0.411 0.373,-0.421 0.34,-0.421C0.307,-0.421 0.281,-0.411 0.262,-0.39C0.243,-0.369 0.233,-0.34 0.233,-0.303L0.233,0L0.062,0L0.062,-0.558L0.233,-0.558L0.233,-0.484C0.25,-0.509 0.274,-0.528 0.303,-0.543C0.332,-0.557 0.365,-0.564 0.402,-0.564Z" style="fill:#ffffff;fill-rule:nonzero;" />
                </g>
                <g transform="matrix(73.8053,0,0,73.8053,497.105,382.315)">
                    <path d="M0.288,0.008C0.24,0.008 0.197,0 0.159,-0.017C0.121,-0.034 0.091,-0.057 0.069,-0.086C0.047,-0.115 0.035,-0.147 0.032,-0.183L0.201,-0.183C0.203,-0.162 0.212,-0.146 0.228,-0.134C0.243,-0.121 0.263,-0.115 0.287,-0.115C0.308,-0.115 0.325,-0.119 0.337,-0.128C0.348,-0.137 0.354,-0.148 0.354,-0.163C0.354,-0.179 0.346,-0.191 0.329,-0.199C0.312,-0.207 0.285,-0.215 0.247,-0.224C0.207,-0.233 0.174,-0.243 0.148,-0.253C0.121,-0.263 0.098,-0.279 0.08,-0.302C0.061,-0.324 0.051,-0.354 0.051,-0.391C0.051,-0.424 0.06,-0.453 0.078,-0.48C0.095,-0.506 0.121,-0.527 0.155,-0.543C0.189,-0.558 0.23,-0.566 0.277,-0.566C0.347,-0.566 0.402,-0.549 0.443,-0.514C0.483,-0.479 0.506,-0.433 0.512,-0.376L0.354,-0.376C0.351,-0.397 0.343,-0.413 0.329,-0.425C0.314,-0.436 0.295,-0.442 0.272,-0.442C0.252,-0.442 0.237,-0.438 0.226,-0.43C0.215,-0.422 0.21,-0.411 0.21,-0.396C0.21,-0.38 0.219,-0.368 0.236,-0.36C0.253,-0.352 0.279,-0.344 0.315,-0.336C0.356,-0.326 0.389,-0.316 0.416,-0.306C0.443,-0.295 0.466,-0.278 0.485,-0.256C0.504,-0.233 0.514,-0.202 0.514,-0.163C0.514,-0.13 0.505,-0.101 0.487,-0.075C0.469,-0.049 0.443,-0.029 0.409,-0.014C0.374,0.001 0.334,0.008 0.288,0.008Z" style="fill:#ffffff;fill-rule:nonzero;" />
                </g>
                <g transform="matrix(73.8053,0,0,73.8053,536.074,382.315)">
                    <path d="M0.233,-0.479C0.25,-0.505 0.273,-0.526 0.302,-0.542C0.331,-0.558 0.366,-0.566 0.405,-0.566C0.451,-0.566 0.493,-0.554 0.53,-0.531C0.567,-0.508 0.597,-0.474 0.619,-0.431C0.64,-0.388 0.651,-0.337 0.651,-0.28C0.651,-0.223 0.64,-0.172 0.619,-0.129C0.597,-0.085 0.567,-0.051 0.53,-0.028C0.493,-0.004 0.451,0.008 0.405,0.008C0.366,0.008 0.332,0 0.303,-0.016C0.273,-0.032 0.25,-0.053 0.233,-0.078L0.233,0.266L0.062,0.266L0.062,-0.558L0.233,-0.558L0.233,-0.479ZM0.477,-0.28C0.477,-0.323 0.465,-0.356 0.442,-0.381C0.418,-0.405 0.389,-0.417 0.354,-0.417C0.32,-0.417 0.291,-0.405 0.268,-0.38C0.244,-0.355 0.232,-0.322 0.232,-0.279C0.232,-0.236 0.244,-0.203 0.268,-0.178C0.291,-0.153 0.32,-0.141 0.354,-0.141C0.388,-0.141 0.417,-0.154 0.441,-0.179C0.465,-0.204 0.477,-0.237 0.477,-0.28Z" style="fill:#ffffff;fill-rule:nonzero;" />
                </g>
                <g transform="matrix(73.8053,0,0,73.8053,583.974,382.315)">
                    <path d="M0.028,-0.28C0.028,-0.337 0.039,-0.388 0.061,-0.431C0.082,-0.474 0.112,-0.508 0.149,-0.531C0.186,-0.554 0.228,-0.566 0.274,-0.566C0.313,-0.566 0.348,-0.558 0.378,-0.542C0.407,-0.526 0.43,-0.505 0.446,-0.479L0.446,-0.558L0.617,-0.558L0.617,0L0.446,0L0.446,-0.079C0.429,-0.053 0.406,-0.032 0.377,-0.016C0.347,0 0.312,0.008 0.273,0.008C0.228,0.008 0.186,-0.004 0.149,-0.028C0.112,-0.051 0.082,-0.085 0.061,-0.129C0.039,-0.172 0.028,-0.223 0.028,-0.28ZM0.446,-0.279C0.446,-0.322 0.434,-0.355 0.411,-0.38C0.387,-0.405 0.358,-0.417 0.324,-0.417C0.29,-0.417 0.261,-0.405 0.238,-0.381C0.214,-0.356 0.202,-0.323 0.202,-0.28C0.202,-0.237 0.214,-0.204 0.238,-0.179C0.261,-0.154 0.29,-0.141 0.324,-0.141C0.358,-0.141 0.387,-0.153 0.411,-0.178C0.434,-0.203 0.446,-0.236 0.446,-0.279Z" style="fill:#ffffff;fill-rule:nonzero;" />
                </g>
                <g transform="matrix(73.8053,0,0,73.8053,631.874,382.315)">
                    <path d="M0.028,-0.279C0.028,-0.337 0.04,-0.388 0.064,-0.431C0.087,-0.474 0.12,-0.508 0.163,-0.531C0.205,-0.554 0.253,-0.566 0.308,-0.566C0.378,-0.566 0.437,-0.548 0.484,-0.511C0.531,-0.474 0.561,-0.423 0.576,-0.356L0.394,-0.356C0.379,-0.399 0.349,-0.42 0.305,-0.42C0.274,-0.42 0.249,-0.408 0.23,-0.384C0.211,-0.359 0.202,-0.324 0.202,-0.279C0.202,-0.234 0.211,-0.199 0.23,-0.175C0.249,-0.15 0.274,-0.138 0.305,-0.138C0.349,-0.138 0.379,-0.159 0.394,-0.202L0.576,-0.202C0.561,-0.137 0.53,-0.085 0.483,-0.048C0.436,-0.011 0.377,0.008 0.308,0.008C0.253,0.008 0.205,-0.004 0.163,-0.027C0.12,-0.05 0.087,-0.084 0.064,-0.127C0.04,-0.17 0.028,-0.221 0.028,-0.279Z" style="fill:#ffffff;fill-rule:nonzero;" />
                </g>
                <g transform="matrix(73.8053,0,0,73.8053,674.312,382.315)">
                    <path d="M0.588,-0.289C0.588,-0.274 0.587,-0.257 0.585,-0.24L0.198,-0.24C0.201,-0.205 0.212,-0.178 0.231,-0.159C0.25,-0.14 0.275,-0.131 0.304,-0.131C0.347,-0.131 0.376,-0.149 0.393,-0.185L0.575,-0.185C0.566,-0.148 0.549,-0.115 0.525,-0.086C0.5,-0.057 0.47,-0.034 0.433,-0.017C0.396,0 0.355,0.008 0.31,0.008C0.255,0.008 0.207,-0.004 0.164,-0.027C0.121,-0.05 0.088,-0.084 0.064,-0.127C0.04,-0.17 0.028,-0.221 0.028,-0.279C0.028,-0.337 0.04,-0.388 0.064,-0.431C0.087,-0.474 0.12,-0.508 0.163,-0.531C0.206,-0.554 0.255,-0.566 0.31,-0.566C0.364,-0.566 0.412,-0.555 0.454,-0.532C0.496,-0.509 0.529,-0.477 0.553,-0.435C0.576,-0.393 0.588,-0.344 0.588,-0.289ZM0.413,-0.327C0.413,-0.359 0.403,-0.384 0.383,-0.402C0.363,-0.42 0.338,-0.429 0.308,-0.429C0.279,-0.429 0.254,-0.42 0.235,-0.403C0.215,-0.385 0.203,-0.36 0.198,-0.327L0.413,-0.327Z" style="fill:#ffffff;fill-rule:nonzero;" />
                </g>
            </g>
        </g>
        <g transform="matrix(1,0,0,1,106.813,280.024)">
            <g transform="matrix(0.695183,0,0,0.695183,33.4911,-117.437)">
                <path d="M318.849,467.998L306.355,467.998C303.04,467.998 300.348,465.307 300.348,461.991L300.348,347.518C300.348,344.203 303.04,341.511 306.355,341.511L318.849,341.511C318.955,341.511 319.061,341.514 319.166,341.519C322.851,341.524 329.298,341.529 340,341.529C356.814,341.529 370.049,348.633 373.877,350.922C374.561,351.361 375.439,351.362 376.123,350.922C379.957,348.636 393.22,341.529 410,341.529L430.767,341.514C430.83,341.512 430.894,341.511 430.958,341.511L443.452,341.511C446.768,341.511 449.459,344.203 449.459,347.518L449.459,461.991C449.459,465.306 446.768,467.998 443.452,467.998L430.958,467.998C430.898,467.998 430.837,467.997 430.777,467.995C430.777,467.995 413.226,468.004 403.328,468.009C399.156,468.011 395.206,469.892 392.576,473.13C387.64,479.205 380.071,488.522 380.071,488.522C377.246,491.347 372.682,491.347 369.856,488.522C369.856,488.522 362.339,479.228 357.425,473.153C354.795,469.901 350.836,468.011 346.654,468.009C336.703,468.004 319.031,467.995 319.031,467.995C318.971,467.997 318.911,467.998 318.849,467.998ZM375,373.04C374.608,373.04 374.253,373.269 374.09,373.625C371.192,379.976 362.366,399.319 362.366,399.319C362.366,399.319 343.021,408.179 336.671,411.087C336.315,411.251 336.087,411.606 336.087,411.998C336.088,412.39 336.317,412.745 336.673,412.907C343.026,415.795 362.366,424.587 362.366,424.587C362.366,424.587 371.192,443.93 374.09,450.281C374.253,450.637 374.608,450.866 375,450.866L375.037,450.865C375.414,450.851 375.752,450.626 375.91,450.281C378.808,443.93 387.634,424.587 387.634,424.587C387.634,424.587 406.905,415.794 413.232,412.906C413.588,412.744 413.817,412.389 413.817,411.998C413.818,411.607 413.59,411.251 413.235,411.088C406.91,408.18 387.634,399.319 387.634,399.319C387.634,399.319 378.808,379.976 375.91,373.625C375.752,373.28 375.414,373.055 375.037,373.041L375,373.04Z" style="fill:rgb(88,100,251);fill-rule:nonzero;" />
            </g>
        </g>
    </g>
</svg>
