<svg xmlns="http://www.w3.org/2000/svg" viewBox="0 0 598 104" fill-rule="evenodd" clip-rule="evenodd" stroke-linejoin="round" stroke-miterlimit="2"><path d="M12.86 87.931H4.176a4.178 4.178 0 01-4.176-4.176V4.175A4.178 4.178 0 014.175 0h8.686c.073 0 .147.002.22.005 2.562.004 7.043.007 14.483.007 11.69 0 20.89 4.939 23.551 6.53a1.444 1.444 0 001.561 0c2.666-1.59 11.886-6.53 23.551-6.53l14.437-.01C90.708 0 90.752 0 90.797 0h8.685a4.178 4.178 0 014.176 4.176v79.58a4.178 4.178 0 01-4.176 4.175h-8.685c-.042 0-.084 0-.126-.002l-19.082.01a9.636 9.636 0 00-7.475 3.56l-8.693 10.7a5.016 5.016 0 01-7.101 0l-8.642-10.684a9.636 9.636 0 00-7.488-3.576l-19.203-.01a3.777 3.777 0 01-.126.002zm39.036-66.013c-.273 0-.52.16-.633.407l-8.15 17.862s-13.449 6.16-17.863 8.18a.697.697 0 00.001 1.266l17.862 8.12 8.15 17.862c.113.247.36.406.633.406h.025a.696.696 0 00.607-.406l8.15-17.862 17.796-8.12a.694.694 0 00.002-1.265l-17.797-8.181-8.15-17.862a.696.696 0 00-.608-.406h-.025z" fill="#5864fb" fill-rule="nonzero"/></svg>