<svg width="46" height="34" xmlns="http://www.w3.org/2000/svg" xmlns:xlink="http://www.w3.org/1999/xlink"><defs><linearGradient x1="33%" y1="6%" x2="71.7%" y2="100%" id="e"><stop stop-color="#2E4469" offset="0%"/><stop stop-color="#2E4469" stop-opacity="0" offset="100%"/></linearGradient><linearGradient x1="14.5%" y1="43.1%" x2="51.4%" y2="62.7%" id="f"><stop stop-color="#2F4568" offset="0%"/><stop stop-color="#445D7F" stop-opacity="0" offset="100%"/></linearGradient><linearGradient x1="88%" y1="52.8%" x2="77%" y2="64.3%" id="g"><stop stop-color="#2E4469" offset="0%"/><stop stop-color="#2E4469" stop-opacity="0" offset="100%"/></linearGradient><linearGradient x1="26.2%" y1="35.7%" x2="86.3%" y2="24.8%" id="i"><stop stop-color="#5B79A2" stop-opacity="0" offset="0%"/><stop stop-color="#2E4469" offset="100%"/></linearGradient><linearGradient x1="0%" y1="50%" x2="100%" y2="50%" id="j"><stop stop-color="#5B79A2" offset="0%"/><stop stop-color="#2E4469" offset="100%"/></linearGradient><linearGradient x1="50%" y1="0%" x2="50%" y2="100%" id="k"><stop stop-color="#5B79A2" offset="0%"/><stop stop-color="#2E4469" offset="100%"/></linearGradient><linearGradient x1="91.6%" y1="52.6%" x2="39.3%" y2="50%" id="o"><stop stop-color="#F878B2" stop-opacity="0" offset="0%"/><stop stop-color="#EF437A" offset="100%"/></linearGradient><linearGradient x1="43.2%" y1="53.1%" x2="7.6%" y2="25.1%" id="p"><stop stop-color="#56749D" offset="0%"/><stop stop-color="#7093C2" offset="100%"/></linearGradient><linearGradient x1="12.1%" y1="81.4%" x2="67.3%" y2="27.2%" id="r"><stop stop-color="#F4487D" stop-opacity=".2" offset="0%"/><stop stop-color="#FF6E9C" offset="100%"/></linearGradient><linearGradient x1="0%" y1="50%" x2="124.7%" y2="50%" id="s"><stop stop-color="#F44881" offset="0%"/><stop stop-color="#E3356A" offset="100%"/></linearGradient><linearGradient x1="7%" y1="120.3%" x2="60.7%" y2="27.2%" id="u"><stop stop-color="#F4487D" stop-opacity=".2" offset="0%"/><stop stop-color="#FF6E9C" offset="100%"/></linearGradient><linearGradient x1="0%" y1="50%" x2="124.7%" y2="50%" id="v"><stop stop-color="#F44881" offset="0%"/><stop stop-color="#E3356A" offset="100%"/></linearGradient><linearGradient x1="33%" y1="50%" x2="56.1%" y2="24.8%" id="w"><stop stop-color="#5B79A2" stop-opacity="0" offset="0%"/><stop stop-color="#2E4469" offset="100%"/></linearGradient><linearGradient x1="73.1%" y1="-23.6%" x2="6.2%" y2="142.5%" id="x"><stop stop-color="#56749D" offset="0%"/><stop stop-color="#25395B" offset="100%"/></linearGradient><linearGradient x1="20.3%" y1="17.1%" x2="77.7%" y2="76.1%" id="y"><stop stop-color="#5B79A2" offset="0%"/><stop stop-color="#2E4469" offset="100%"/></linearGradient><linearGradient x1="22.3%" y1="12.2%" x2="75.8%" y2="80.1%" id="z"><stop stop-color="#395273" offset="0%"/><stop stop-color="#1D2D4A" offset="100%"/></linearGradient><filter x="-9.7%" y="-58.1%" width="119.4%" height="216.3%" filterUnits="objectBoundingBox" id="d"><feGaussianBlur stdDeviation="1" in="SourceGraphic"/></filter><filter x="-2.5%" y="-5.7%" width="105%" height="110.4%" filterUnits="objectBoundingBox" id="h"><feGaussianBlur stdDeviation=".4" in="SourceGraphic"/></filter><filter x="-4.7%" y="-7.5%" width="109.4%" height="114.9%" filterUnits="objectBoundingBox" id="l"><feGaussianBlur stdDeviation=".4" in="SourceGraphic"/></filter><filter x="-11.7%" y="-38.3%" width="123.4%" height="173.2%" filterUnits="objectBoundingBox" id="m"><feMorphology radius=".3" operator="dilate" in="SourceAlpha" result="shadowSpreadOuter1"/><feOffset in="shadowSpreadOuter1" result="shadowOffsetOuter1"/><feMorphology radius="1" in="SourceAlpha" result="shadowInner"/><feOffset in="shadowInner" result="shadowInner"/><feComposite in="shadowOffsetOuter1" in2="shadowInner" operator="out" result="shadowOffsetOuter1"/><feGaussianBlur stdDeviation=".5" in="shadowOffsetOuter1" result="shadowBlurOuter1"/><feColorMatrix values="0 0 0 0 1 0 0 0 0 0.0915967988 0 0 0 0 0.38564639 0 0 0 1 0" in="shadowBlurOuter1"/></filter><filter x="-70.5%" y="-71.9%" width="241%" height="243.8%" filterUnits="objectBoundingBox" id="q"><feGaussianBlur stdDeviation=".8" in="SourceGraphic"/></filter><filter x="-70.5%" y="-71.9%" width="241%" height="243.8%" filterUnits="objectBoundingBox" id="t"><feGaussianBlur stdDeviation=".8" in="SourceGraphic"/></filter><path id="a" d="M0 1h50v49H0z"/><path d="M23 11l-5 3h-1l-9-3-1-2" id="n"/><radialGradient cx="52.1%" cy="30.6%" fx="52.1%" fy="30.6%" r="292%" gradientTransform="matrix(-.16712 0 0 -.25522 1 0)" id="c"><stop offset="0%"/><stop stop-opacity="0" offset="100%"/></radialGradient></defs><g transform="translate(-2 -11)" fill="none" fill-rule="evenodd"><mask id="b" fill="#fff"><use xlink:href="#a"/></mask><g mask="url(#b)"><g transform="translate(-3 -2)"><ellipse fill="url(#c)" opacity=".8" filter="url(#d)" transform="rotate(1 28 43)" cx="27.9" cy="42.5" rx="15.5" ry="2.6"/><path d="M7 20l22-1c1-1 2 0 3 1l17 16c1 1 0 2-1 2l-25 3-3-2L6 22c-1-1 0-2 1-2z" fill="#1B283E"/><path d="M2 4a714 714 0 0112 20L1 6V4h1c0-1 0 0 0 0z" fill="url(#e)" transform="rotate(-5 191 -34)"/><path d="M3 2h23l3 2 14 18-1 1H17l-3-1L2 3l1-1z" fill="url(#f)" transform="rotate(-5 206 -36)"/><path d="M0 6l14 17 4 1 26-2v-1l-1 2-25 2-3-1L1 6H0z" fill="url(#g)" transform="translate(5 16)"/><path d="M5 3L4 4H2l13 16 4 2 25-3-2-1L24 4 5 3z" fill="#0E151F" opacity=".3" filter="url(#h)" transform="translate(5 16)"/><path d="M8 15l22-1 3 1 18 16-2 3-25 2-3-1L7 18c-1-1 0-3 1-3z" fill="#1B283E"/><path d="M10 16l-1 1 1 1 1-1-1-1z" fill="url(#i)" transform="translate(6 11)"/><path d="M3 2a4852 4852 0 0126 2l14 18-1 1H17l-3-1L2 3l1-1z" fill="url(#j)" transform="rotate(-5 155 -55)"/><path d="M21 3l3 4-3 1 2 3v1l-5 3-10-3-1-1-7-9 3-2 5 2 5 6 2-2-2-3 2-1h1l5 1zm0 1h-1l-1 1 2 3 2-2-2-2zm2 7l-2-2h-2l-3 3 2 2 5-3zM8 11l9 3-2-2-5-2-5-6-2-1-2-1 7 9zM1 2l4 1 2-1-4-1-2 1zm10 7l1-1-4-6-1 1-1 1 4 5h1zm5-7l-2 1 4 2 2-2-4-1zm2 3l-2-1h-2l2 2 2 1 2 1-2-3zm-3 6l3-2 2-1-4-1-3 1-2 2 4 1z" fill="url(#k)" filter="url(#l)" transform="translate(16 17)"/><path d="M36 20s0 0 0 0l3 3v1l-3 1 3 3h-1l-5 3s0 0 0 0 0 0 0 0 0 0 0 0 0 0 0 0 0 0 0 0l-10-3s0 0 0 0l-7-9s0 0 0 0 0 0 0 0 0 0 0 0 0 0 0 0 0 0 0 0 0 0 0 0 0 0 0 0l3-2s0 0 0 0l5 2s0 0 0 0 0 0 0 0 0 0 0 0 0 0 0 0 0 0 0 0 0 0 0 0 0 0 0 0l5 6 2-2-3-3s0 0 0 0 0 0 0 0 0 0 0 0 0 0 0 0 0 0 0 0 0 0 0 0 0 0 0 0l3-1s0 0 0 0l5 1s0 0 0 0 0 0 0 0 0 0 0 0 0 0 0 0 0 0 0 0 0 0 0 0zm0 1h-1l-1 1 2 3 2-2-2-2zm2 7l-2-3-1 1-4 2 2 3 5-3zm-14 0l9 3-2-3-5-1s0 0 0 0 0 0 0 0 0 0 0 0 0 0 0 0v-1s0 0 0 0 0 0 0 0 0 0 0 0l-5-5-2-1-2-1 7 9zm-7-9l4 1 2-1-4-1-2 1zm10 6h1l-4-6-1 1-1 1 4 5 1-1zm4-6l-2 1 4 2 2-2-4-1zm2 3l-2-1h-2l2 2 3 1 1 1-2-3zm-2 6l3-2 1-1-4-1-2 1-2 1 4 2z" stroke="#1B283E" stroke-width=".6" fill="#1B283E"/><g stroke-linecap="round" stroke-linejoin="round" transform="translate(16 17)"><use fill="#000" filter="url(#m)" xlink:href="#n"/><use stroke="url(#o)" stroke-width=".6" xlink:href="#n"/></g><path d="M9 14h23l4 2-12 19-3-1L8 15l1-1z" fill="url(#p)" opacity=".4" transform="rotate(-5 22 24)"/><g transform="translate(0 16)"><circle fill="#F1476C" filter="url(#q)" cx="21.4" cy="9.9" r="1.6"/><path stroke="url(#r)" stroke-width=".7" stroke-linejoin="round" d="M0 12l1 3 11-6-7-8" transform="scale(-1 1) rotate(-31 8 52)"/><g transform="scale(-1 1) rotate(-31 6 45)"><circle fill="#F1476C" cx="1.1" cy="1.1" r="1.1"/><path d="M1 0L0 1l1-1z" fill-opacity=".2" fill="#FFF"/></g><g transform="scale(-1 1) rotate(-31 32 44)"><circle fill="#F1476C" cx=".8" cy=".8" r="1"/><path d="M1 0L0 1l1-1z" fill-opacity=".2" fill="#FFF"/></g><g transform="scale(-1 1) rotate(-31 16 29)"><ellipse fill="url(#s)" cx="1.3" cy="1.2" rx="1.3" ry="1.2"/><path d="M1 0h1a1 1 0 00-2 1l1-1z" fill-opacity=".2" fill="#FFF"/></g></g><g transform="scale(-1 1) rotate(64 -16 -26)"><circle fill="#F1476C" filter="url(#t)" cx="16.5" cy="8" r="1.6"/><path stroke="url(#u)" stroke-width=".7" stroke-linejoin="round" d="M0 10l1 2 7-5-4-6" transform="scale(-1 1) rotate(-31 5 41)"/><g transform="scale(-1 1) rotate(-31 4 35)"><circle fill="#F1476C" cx=".9" cy=".9" r="1"/><path d="M1 0h1a1 1 0 00-2 1l1-1z" fill-opacity=".2" fill="#FFF"/></g><g transform="scale(-1 1) rotate(-31 24 34)"><circle fill="#F1476C" cx=".6" cy=".6" r="1"/><path d="M1 0L0 1a1 1 0 011-1z" fill-opacity=".2" fill="#FFF"/></g><g transform="scale(-1 1) rotate(-31 12 26)"><circle fill="url(#v)" cx="1" cy="1" r="1"/><path d="M1 0h1a1 1 0 00-2 1l1-1z" fill-opacity=".2" fill="#FFF"/></g></g><path d="M19 31v1l1 1v-1l-1-1z" fill="url(#w)"/><path d="M17 34v2l1 1v-1l-1-2z" fill="url(#w)" opacity=".7"/><path d="M19 32c-5-1-6 4-2 4" stroke="url(#x)" stroke-width=".6"/><path d="M19 32h1l-1-1v1z" fill="#25395B"/><path d="M0 0v1h1V0H0z" fill="url(#y)" transform="translate(18 31)"/><path d="M0 0v1h1V0H0z" fill="url(#z)" transform="translate(17 35)"/></g></g></g></svg>